<?xml version='1.0' encoding='utf-8'?>
<svg xmlns="http://www.w3.org/2000/svg" enable-background="new 0 0 316.25 316.25" viewBox="0 0 316.25 316.25"> <defs> <linearGradient id="j" x1="71.765" x2="244.48" gradientUnits="userSpaceOnUse"> <stop stop-color="#9e9e9e" offset="0"/> <stop stop-color="#dbdbdb" offset="1"/> </linearGradient> <linearGradient id="i" x1="222.92" x2="93.325" gradientUnits="userSpaceOnUse"> <stop stop-color="#adadad" offset="0"/> <stop stop-color="#ccc" offset="1"/> </linearGradient> <linearGradient id="b" x1="218.12" x2="158.12" gradientUnits="userSpaceOnUse"> <stop stop-color="#ccc" offset="0"/> <stop stop-color="#f2f2f2" offset="1"/> </linearGradient> <linearGradient id="a" x1="158.12" x2="98.125" gradientUnits="userSpaceOnUse"> <stop stop-color="#ccc" offset="0"/> <stop stop-color="#f2f2f2" offset="1"/> </linearGradient> <linearGradient id="c" x1="235.91" x2="237.23" y1="154.05" y2="179.24" gradientUnits="userSpaceOnUse"> <stop stop-color="#545454" offset="0"/> <stop stop-color="#d6d6d6" offset="1"/> </linearGradient> <linearGradient id="e" x1="172.74" x2="143.52" y1="82.965" y2="77.285" gradientUnits="userSpaceOnUse"> <stop stop-color="#545454" offset="0"/> <stop stop-color="#d6d6d6" offset="1"/> </linearGradient> <linearGradient id="f" x1="80.504" x2="78.718" y1="152.7" y2="178.25" gradientUnits="userSpaceOnUse"> <stop stop-color="#545454" offset="0"/> <stop stop-color="#d6d6d6" offset="1"/> </linearGradient> <linearGradient id="d" x1="133.06" x2="183.19" y1="227" y2="245.25" gradientUnits="userSpaceOnUse"> <stop stop-color="#545454" offset="0"/> <stop stop-color="#d6d6d6" offset="1"/> </linearGradient> <radialGradient id="h" cx="158.12" cy="158.12" r="32.4" gradientUnits="userSpaceOnUse"> <stop offset=".1963"/> <stop stop-color="#bababa" offset="1"/> </radialGradient> <radialGradient id="g" cx="158.12" cy="158.12" r="18" gradientUnits="userSpaceOnUse"> <stop stop-color="#7d7d7d" offset="0"/> <stop offset="1"/> </radialGradient> </defs> <path d="m248.12 158.12a90 90 0 1 0-180 0 90 90 0 1 0 180 0" stroke="#000" stroke-width="2.0588"/> <path d="m245.88 158.12a87.75 87.75 0 1 0-175.5 0 87.75 87.75 0 1 0 175.5 0" fill="none" stroke="#fff" stroke-dasharray="1.4902,1.4902" stroke-linejoin="bevel" stroke-width="2.25"/> <path d="m244.48 158.12a86.36 86.36 0 1 0-172.72 0 86.36 86.36 0 1 0 172.72 0" fill="url(#j)" stroke="#000" stroke-width="2.239"/> <path d="m222.92 158.12a64.8 64.8 0 1 0-129.6 0 64.8 64.8 0 1 0 129.6 0" fill="url(#i)" stroke="#9c9c9c" stroke-width=".5"/> <path d="m158.12 158.12 58.5 27.279-36.162-35.41" fill="#4a4a4a" stroke="#000" stroke-linecap="round" stroke-linejoin="round" stroke-width=".3328"/> <path d="m158.12 158.12-27.279 58.5 35.41-36.162" fill="#4a4a4a" stroke="#000" stroke-linecap="round" stroke-linejoin="round" stroke-width=".3328"/> <path d="m158.12 158.12-58.5-27.279 36.162 35.41" fill="#4a4a4a" stroke="#000" stroke-linecap="round" stroke-linejoin="round" stroke-width=".3328"/> <path d="m158.12 158.12 27.279-58.5-35.41 36.162" fill="#4a4a4a" stroke="#000" stroke-linecap="round" stroke-linejoin="round" stroke-width=".3328"/> <path d="m158.12 158.12 58.5 27.279-50.369-4.941" fill="#4a4a4a" stroke="#000" stroke-linecap="round" stroke-linejoin="round" stroke-miterlimit="10" stroke-width=".3328"/> <path d="m158.12 158.12-27.279 58.5 4.941-50.369" fill="#4a4a4a" stroke="#000" stroke-linecap="round" stroke-linejoin="round" stroke-miterlimit="10" stroke-width=".3328"/> <path d="m158.12 158.12-58.5-27.279 50.37 4.941" fill="#4a4a4a" stroke="#000" stroke-linecap="round" stroke-linejoin="round" stroke-miterlimit="10" stroke-width=".3328"/> <path d="m158.12 158.12 27.279-58.5-4.941 50.37" fill="#4a4a4a" stroke="#000" stroke-linecap="round" stroke-linejoin="round" stroke-miterlimit="10" stroke-width=".3328"/> <path d="m158.12 158.12-27.279-58.5 4.941 50.37" fill="#4a4a4a" stroke="#000" stroke-linecap="round" stroke-linejoin="round" stroke-width=".3328"/> <path d="m158.12 158.12 58.5-27.279-50.37 4.941" fill="#4a4a4a" stroke="#000" stroke-linecap="round" stroke-linejoin="round" stroke-width=".3328"/> <path d="m158.12 158.12 27.279 58.5-4.94-50.37" fill="#4a4a4a" stroke="#000" stroke-linecap="round" stroke-linejoin="round" stroke-width=".3328"/> <path d="m158.12 158.12-58.5 27.279 50.37-4.94" fill="#4a4a4a" stroke="#000" stroke-linecap="round" stroke-linejoin="round" stroke-width=".3328"/> <path d="m158.12 158.12-27.279-58.5 35.409 36.162" fill="#4a4a4a" stroke="#000" stroke-linecap="round" stroke-linejoin="round" stroke-miterlimit="10" stroke-width=".3328"/> <path d="m158.12 158.12 58.5-27.279-36.161 35.409" fill="#4a4a4a" stroke="#000" stroke-linecap="round" stroke-linejoin="round" stroke-miterlimit="10" stroke-width=".3328"/> <path d="m158.12 158.12 27.279 58.5-35.41-36.161" fill="#4a4a4a" stroke="#000" stroke-linecap="round" stroke-linejoin="round" stroke-miterlimit="10" stroke-width=".3328"/> <path d="m158.12 158.12-58.5 27.279 36.162-35.41" fill="#4a4a4a" stroke="#000" stroke-linecap="round" stroke-linejoin="round" stroke-miterlimit="10" stroke-width=".3328"/> <path d="m158.12 158.12 60-60-60 28.75" fill="url(#b)" stroke="#000" stroke-linecap="round" stroke-linejoin="round" stroke-width=".4375"/> <path d="m158.12 158.12 60 60-28.75-60" fill="url(#b)" stroke="#000" stroke-linecap="round" stroke-linejoin="round" stroke-width=".4375"/> <path d="m158.12 158.12-60 60 60-28.75" fill="url(#a)" stroke="#000" stroke-linecap="round" stroke-linejoin="round" stroke-width=".4375"/> <path d="m158.12 158.12-60-60 28.75 60" fill="url(#a)" stroke="#000" stroke-linecap="round" stroke-linejoin="round" stroke-width=".4375"/> <path d="m158.12 158.12 60-60-28.75 60" stroke="#000" stroke-linecap="round" stroke-linejoin="round" stroke-miterlimit="10" stroke-width=".4375"/> <path d="m158.12 158.12 60 60-60-28.75" stroke="#000" stroke-linecap="round" stroke-linejoin="round" stroke-miterlimit="10" stroke-width=".4375"/> <path d="m158.12 158.12-60 60 28.75-60" stroke="#000" stroke-linecap="round" stroke-linejoin="round" stroke-miterlimit="10" stroke-width=".4375"/> <path d="m158.12 158.12-60-60 60 28.75" stroke="#000" stroke-linecap="round" stroke-linejoin="round" stroke-miterlimit="10" stroke-width=".4375"/> <path d="m158.12 158.12 24-24-24-132"/> <path d="m158.12 158.12-24-24-132 24"/> <path d="m158.12 158.12-24 24 24 132"/> <path d="m158.12 158.12 24 24 132-24" fill="url(#c)"/> <path d="m158.12 158.12-24-24 24-132" fill="url(#e)"/> <path d="m158.12 158.12-24 24-132-24" fill="url(#f)"/> <path d="m158.12 158.12 24 24-24 132" fill="url(#d)"/> <path d="m158.12 158.12 24-24 132 24"/> <path d="m194.12 158.12a36 36 0 1 0-72 0 36 36 0 1 0 72 0" fill="#fff"/> <path d="m190.52 158.12a32.4 32.4 0 1 0-64.8 0 32.4 32.4 0 1 0 64.8 0" fill="url(#h)"/> <path d="m176.12 158.12a18 18 0 1 0-36 0 18 18 0 1 0 36 0" fill="url(#g)"/> </svg>